# xmcd
#
# Track frame offsets: 
#        150
#        18866
#        33043
#        48289
#        64015
#        81186
#
# Disc length: 1309 seconds
#
# Revision: 0
# Processed by: cddbd v1.5.2PL0 Copyright (c) Steve Scherf et al.
# Submitted via: ExactAudioCopyFreeDBPlugin 1.0
#
DISCID=3a051b06
DTITLE=Rod Stewart - Fly Me To The Moon - The Great American Songbook 
DTITLE=Volume V - Disc 2
DYEAR=2010
DGENRE=Blues
TTITLE0=Bye Bye Blackbird
TTITLE1=All Of Me
TTITLE2=She's Funny That Way
TTITLE3=Cheek To Cheek
TTITLE4=Ain't Misbehavin'
TTITLE5=When I Fall In Love
EXTD=
EXTT0=
EXTT1=
EXTT2=
EXTT3=
EXTT4=
EXTT5=
PLAYORDER=
